<svg width="997" height="1051" viewBox="0 0 997 1051" fill="none" xmlns="http://www.w3.org/2000/svg">
<g filter="url(#filter0_bdd)">
<path fill-rule="evenodd" clip-rule="evenodd" d="M510.183 25.5988C571.479 37.1729 617.74 86.2881 667.612 123.731C709.926 155.5 739.755 200.317 783.177 230.557C832.806 265.12 910.928 263.078 942.094 314.885C972.461 365.365 948.534 431.884 939.284 490.052C931.063 541.741 901.957 586.852 890.713 637.969C878.79 692.171 903.175 756.8 870.704 801.823C838.417 846.593 774.389 854.021 722.097 871.768C675.8 887.48 628.056 894.399 579.561 900.632C532.761 906.647 485.172 896.612 439.409 908.099C364.698 926.853 301.25 1002.28 225.277 989.564C159.897 978.62 93.2507 915.053 86.9963 849.11C79.0405 765.227 179.07 704.237 190.294 620.728C196.452 574.916 153.428 537.225 134.591 495.007C105.206 429.147 14.5613 363.739 46.8583 299.255C79.199 234.684 201.497 298.557 256.462 251.681C308.906 206.954 276.424 105.437 327.884 59.5827C374.416 18.1204 448.922 14.0312 510.183 25.5988Z" fill="#0070C9"/>
</g>
<defs>
<filter id="filter0_bdd" x="0" y="0" width="997" height="1051" filterUnits="userSpaceOnUse" color-interpolation-filters="sRGB">
<feFlood flood-opacity="0" result="BackgroundImageFix"/>
<feGaussianBlur in="BackgroundImage" stdDeviation="2"/>
<feComposite in2="SourceAlpha" operator="in" result="effect1_backgroundBlur"/>
<feColorMatrix in="SourceAlpha" type="matrix" values="0 0 0 0 0 0 0 0 0 0 0 0 0 0 0 0 0 0 127 0"/>
<feOffset dy="1"/>
<feGaussianBlur stdDeviation="1.5"/>
<feColorMatrix type="matrix" values="0 0 0 0 0 0 0 0 0 0 0 0 0 0 0 0 0 0 0.25 0"/>
<feBlend mode="normal" in2="effect1_backgroundBlur" result="effect2_dropShadow"/>
<feColorMatrix in="SourceAlpha" type="matrix" values="0 0 0 0 0 0 0 0 0 0 0 0 0 0 0 0 0 0 127 0"/>
<feOffset dy="20"/>
<feGaussianBlur stdDeviation="20"/>
<feColorMatrix type="matrix" values="0 0 0 0 0 0 0 0 0 0 0 0 0 0 0 0 0 0 0.25 0"/>
<feBlend mode="normal" in2="effect2_dropShadow" result="effect3_dropShadow"/>
<feBlend mode="normal" in="SourceGraphic" in2="effect3_dropShadow" result="shape"/>
</filter>
</defs>
</svg>
