<svg width="1533" height="799" viewBox="0 0 1533 799" fill="none" xmlns="http://www.w3.org/2000/svg">
<path d="M0 325.211L25.55 298.317C51.1 271.422 102.2 217.633 153.3 208.725C204.4 199.144 255.5 236.123 306.6 190.739C357.7 145.355 408.8 20.9681 459.9 2.47814C511 -16.0118 562.1 74.7569 613.2 83.1614C664.3 91.5659 715.4 20.9681 766.5 29.3726C817.6 37.7771 868.7 128.546 919.8 172.753C970.9 217.633 1022 217.633 1073.1 190.739C1124.2 163.845 1175.3 110.056 1226.4 128.041C1277.5 145.355 1328.6 236.123 1379.7 271.422C1430.8 306.721 1481.9 289.912 1507.45 280.331L1533 271.422V379H1507.45C1481.9 379 1430.8 379 1379.7 379C1328.6 379 1277.5 379 1226.4 379C1175.3 379 1124.2 379 1073.1 379C1022 379 970.9 379 919.8 379C868.7 379 817.6 379 766.5 379C715.4 379 664.3 379 613.2 379C562.1 379 511 379 459.9 379C408.8 379 357.7 379 306.6 379C255.5 379 204.4 379 153.3 379C102.2 379 51.1 379 25.55 379H0L0 325.211Z" fill="#212121" fill-opacity="0.4"/>
<g clip-path="url(#clip0)">
<path d="M1533 421L1481.9 414.044C1430.8 406.563 1328.6 393.438 1226.4 414.044C1124.2 435.438 1022 490.563 919.8 561.044C817.6 631 715.4 715 613.2 750.044C511 784.563 408.8 771.438 306.6 750.044C204.4 729.438 102.2 700.563 51.1001 687.044L0 673V379H51.1001C102.2 379 204.4 379 306.6 379C408.8 379 511 379 613.2 379C715.4 379 817.6 379 919.8 379C1022 379 1124.2 379 1226.4 379C1328.6 379 1430.8 379 1481.9 379H1533V421Z" fill="#212121" fill-opacity="0.4"/>
</g>
<defs>
<clipPath id="clip0">
<rect width="1533" height="420" fill="white" transform="translate(1533 799) rotate(180)"/>
</clipPath>
</defs>
</svg>
