<svg id="Layer_1" enable-background="new 0 0 512 512" height="512" viewBox="0 0 512 512" width="512" xmlns="http://www.w3.org/2000/svg"><g><g><g><g><g><g><path d="m367.709 504.5h-226.506c-17.053 0-30.878-13.824-30.878-30.878v-36.799l50-145.901-50-236.958v-15.586c0-17.053 13.824-30.878 30.878-30.878h226.507c17.053 0 30.878 13.824 30.878 30.878v15.586l-40 242.896 40 139.964v36.799c-.001 17.053-13.825 30.877-30.879 30.877z" fill="#7776d0"/><path d="m398.587 38.378c0-17.053-13.824-30.878-30.878-30.878h-40c17.053 0 30.878 13.824 30.878 30.878v15.586l-40 242.896 40 139.964v36.799c0 17.053-13.824 30.878-30.878 30.878h40c17.053 0 30.878-13.824 30.878-30.878v-36.799l-40-139.964 40-242.896z" fill="#6967bf"/><path d="m110.325 53.964h288.262v382.859h-288.262z" fill="#fff5b5"/><path d="m358.587 53.964h40v382.859h-40z" fill="#ffef8f"/></g></g></g><g><g><path d="m152.146 177.153c61.815 0 111.927 50.102 111.927 111.906 0 32.588-13.936 61.918-36.17 82.37v29.506l-26.689-11.275c-14.817 7.238-31.467 11.305-49.068 11.305-61.815 0-111.927-50.102-111.927-111.906 0-61.804 50.112-111.906 111.927-111.906z" fill="#ff8ccc"/><path d="m151.718 176.704c-6.826 0-13.51.608-20 1.772 52.51 9.416 92.355 55.243 92.355 110.359s-39.845 100.944-92.355 110.359c6.49 1.164 13.174 1.772 20 1.772 17.742 0 34.524-4.104 49.444-11.413l26.741 11.383-.089-29.603c22.292-20.491 36.259-49.867 36.259-82.498 0-61.928-50.303-112.131-112.355-112.131z" fill="#ff78c2"/><g fill="#fff"><circle cx="98.212" cy="290.922" r="14.763"/><circle cx="152.146" cy="290.922" r="14.763"/><circle cx="206.08" cy="290.922" r="14.763"/></g></g><g><path d="m468.693 123.017v130.918c0 17.663-14.319 31.982-31.982 31.982h-105.787l-33.524 29.581v-29.581h-27.488c-17.663 0-31.982-14.319-31.982-31.982v-130.918c0-17.663 14.319-31.982 31.982-31.982h166.798c17.664 0 31.983 14.319 31.983 31.982z" fill="#a6f5cf"/><g><path d="m436.71 91.035h-40c17.663 0 31.982 14.319 31.982 31.982v130.918c0 17.663-14.319 31.982-31.982 31.982h40c17.663 0 31.982-14.319 31.982-31.982v-130.918c.001-17.663-14.318-31.982-31.982-31.982z" fill="#8aedbd"/></g></g></g></g></g><g><path d="m220.741 462.546c-4.142 0-7.5 3.357-7.5 7.5s3.358 7.5 7.5 7.5h67.43c4.142 0 7.5-3.357 7.5-7.5s-3.358-7.5-7.5-7.5z"/><path d="m98.212 268.659c-12.275 0-22.262 9.987-22.262 22.263s9.987 22.263 22.262 22.263c12.276 0 22.263-9.987 22.263-22.263s-9.987-22.263-22.263-22.263zm0 29.526c-4.004 0-7.262-3.258-7.262-7.263s3.258-7.263 7.262-7.263c4.005 0 7.263 3.258 7.263 7.263s-3.258 7.263-7.263 7.263z"/><path d="m174.408 290.922c0-12.275-9.987-22.263-22.262-22.263-12.276 0-22.263 9.987-22.263 22.263s9.987 22.263 22.263 22.263 22.262-9.988 22.262-22.263zm-29.524 0c0-4.005 3.258-7.263 7.263-7.263 4.004 0 7.262 3.258 7.262 7.263s-3.258 7.263-7.262 7.263c-4.006 0-7.263-3.258-7.263-7.263z"/><path d="m206.08 313.185c12.275 0 22.262-9.987 22.262-22.263s-9.987-22.263-22.262-22.263c-12.276 0-22.263 9.987-22.263 22.263s9.987 22.263 22.263 22.263zm0-29.526c4.004 0 7.262 3.258 7.262 7.263s-3.258 7.263-7.262 7.263c-4.005 0-7.263-3.258-7.263-7.263s3.258-7.263 7.263-7.263z"/><path d="m436.71 83.534h-30.623v-45.156c0-21.162-17.216-38.378-38.378-38.378h-226.506c-21.162 0-38.377 17.216-38.377 38.378v52.656c0 9.697 15 9.697 15 0v-29.57h273.262v22.07h-121.176c-21.771 0-39.482 17.712-39.482 39.482v75.858c-21.576-18.747-49.245-29.222-78.284-29.222-11.925 0-23.447 1.757-34.321 5.025v-44.677c0-9.697-15-9.697-15 0v50.316c-41.313 18.806-70.105 60.476-70.105 108.743 0 48.268 28.792 89.938 70.106 108.743v75.82c0 21.162 17.216 38.378 38.377 38.378h184.757c4.142 0 7.5-3.357 7.5-7.5s-3.358-7.5-7.5-7.5h-184.757c-12.89 0-23.377-10.487-23.377-23.378v-29.299h273.262v29.299c0 12.891-10.487 23.378-23.378 23.378h-1.749c-4.142 0-7.5 3.357-7.5 7.5s3.358 7.5 7.5 7.5h1.749c21.162 0 38.378-17.216 38.378-38.378v-180.205h30.623c21.771 0 39.482-17.712 39.482-39.482v-130.918c0-21.771-17.712-39.483-39.483-39.483zm-318.885-37.07v-8.086c0-12.891 10.487-23.378 23.377-23.378h226.506c12.891 0 23.378 10.487 23.378 23.378v8.086zm-70.105 242.595c0-57.569 46.846-104.406 104.427-104.406 30.054 0 58.431 12.834 78.284 35.305v33.977c0 17.084 10.907 31.667 26.123 37.155-.558 28.381-12.78 55.551-33.727 74.819-1.544 1.42-2.423 3.422-2.423 5.52v18.196l-16.27-6.874c-1.998-.844-4.262-.78-6.211.17-14.323 6.997-29.724 10.545-45.776 10.545-57.582 0-104.427-46.837-104.427-104.407zm343.367 140.264h-273.262v-25.882c10.874 3.268 22.396 5.025 34.321 5.025 17.191 0 33.737-3.562 49.233-10.594l23.604 9.973c5.946 1.426 9.419-.878 10.419-6.909v-26.279c21.987-21.396 34.961-50.627 36.089-81.239h18.409v22.081c0 6.286 7.624 9.891 12.462 5.624l31.398-27.705h57.327zm70.106-175.388c0 13.5-10.983 24.482-24.482 24.482h-105.786c-1.828 0-3.592.667-4.962 1.876l-21.063 18.585v-12.961c0-4.143-3.358-7.5-7.5-7.5h-27.488c-13.5 0-24.482-10.982-24.482-24.482v-36.459c.008-.195.008-.391 0-.587v-93.872c0-13.5 10.983-24.482 24.482-24.482h166.798c13.5 0 24.482 10.982 24.482 24.482v130.918z"/><path d="m434.857 173.055c-4.221-4.242-10.034-6.394-17.28-6.394-4.777 0-9.167 1.231-12.985 3.467v-23.088c0-4.143-3.358-7.5-7.5-7.5s-7.5 3.357-7.5 7.5v81.222c0 9.697 15 9.697 15 0v-27.881c0-11.021 5.339-18.72 12.985-18.72 10.184 0 10.361 10.82 10.32 18.747l.103 27.881c.034 9.416 15.036 9.831 15-.055l-.103-27.814c.068-13.087-2.487-21.782-8.04-27.365z"/><path d="m378.067 197.196h-3.089c.124-20.434.197-42.997-.054-46.005-.489-5.868-3.96-10.637-8.843-12.148-2.314-.717-8.294-1.646-13.849 5.168-4.752 5.83-28.31 48.39-32.984 56.862-2.852 5.169 1.349 11.123 6.567 11.123h34.061c-.043 6.022-.089 11.817-.134 16.994-.036 4.142 3.293 7.528 7.435 7.564h.066c4.111 0 7.463-3.315 7.498-7.436.027-3.106.08-9.396.136-17.123h3.189c4.142 0 7.5-3.357 7.5-7.5s-3.357-7.499-7.499-7.499zm-18.093 0h-21.422c8.41-15.08 16.731-29.675 21.531-37.63.034 8.351-.02 22.736-.109 37.63z"/><path d="m316.739 221.563c-9.968.125-20.605.207-28.604.189 4.692-6.209 11.792-15.793 22.058-30.46 5.046-7.21 10.613-16.352 10.613-25.583 0-15.875-12.916-28.791-28.791-28.791-13.728 0-25.609 9.765-28.251 23.219-.798 4.064 1.85 8.007 5.914 8.805 4.066.797 8.007-1.85 8.805-5.914 1.264-6.438 6.956-11.109 13.532-11.109 7.462 0 13.559 5.957 13.785 13.365-.986 6.405-4.202 12.131-7.896 17.407-13.204 18.866-21.084 29.185-25.318 34.729-5.084 6.658-6.987 9.149-5.672 13.427.759 2.468 2.634 4.876 5.148 5.715 0 0 31.931.163 44.865 0 9.69-.122 9.522-15.197-.188-14.999z"/><path d="m40.754 180.988c4.817 8.029 17.841.578 12.861-7.719l-11.01-18.345c-4.991-8.315-17.852-.595-12.861 7.719z"/><path d="m29.42 193.131-17.928-11.432c-8.178-5.209-16.241 7.434-8.064 12.648l17.928 11.432c7.862 5.008 16.438-7.308 8.064-12.648z"/><path d="m470.716 316.716c-1.992-9.491-16.672-6.408-14.68 3.082l4.399 20.959c1.956 9.321 16.685 6.467 14.68-3.082z"/><path d="m510.346 316.423-13.194-16.711c-6.007-7.612-17.782 1.684-11.772 9.295l13.194 16.711c6.171 7.818 17.675-1.82 11.772-9.295z"/></g></g></svg>